<?xml version="1.0" encoding="UTF-8"?><svg id="b" xmlns="http://www.w3.org/2000/svg" viewBox="0 0 564 93.87"><g id="c"><path d="M154.54,38.88c-1.4-.76-2.78-1.14-4.15-1.14-1.58,0-3.01.39-4.31,1.18s-2.31,1.87-3.06,3.26c-.74,1.38-1.12,2.92-1.12,4.62s.37,3.24,1.12,4.62c.74,1.38,1.76,2.47,3.06,3.26s2.73,1.18,4.31,1.18c1.28,0,2.62-.33,4.02-.98,1.4-.65,2.65-1.55,3.75-2.68l4.77,5.13c-1.7,1.79-3.71,3.21-6.04,4.26s-4.65,1.58-6.94,1.58c-3.09,0-5.89-.71-8.39-2.14-2.5-1.43-4.46-3.38-5.89-5.84-1.43-2.47-2.14-5.23-2.14-8.3s.73-5.77,2.19-8.21,3.46-4.36,6-5.76c2.54-1.4,5.39-2.1,8.54-2.1,2.32,0,4.61.48,6.87,1.45s4.18,2.28,5.76,3.95l-4.73,5.71c-1.01-1.28-2.22-2.3-3.61-3.06Z" style="fill:#fff;"/><path d="M185.19,62.59l-4.55-8.66h-6.07v8.66h-8.16v-31.27h14.05c4.13,0,7.34.96,9.62,2.88,2.28,1.92,3.41,4.62,3.41,8.1,0,2.35-.48,4.38-1.43,6.09-.95,1.71-2.34,3.04-4.15,3.99l6.51,10.22h-9.24ZM174.57,47.43h5.93c1.67,0,2.95-.42,3.86-1.25s1.36-2.04,1.36-3.61-.45-2.68-1.36-3.5c-.91-.82-2.19-1.23-3.86-1.23h-5.93v9.59Z" style="fill:#fff;"/><path d="M208.08,54.43c1.16,1.19,2.63,1.78,4.42,1.78s3.17-.59,4.26-1.76c1.09-1.17,1.63-2.76,1.63-4.75v-18.38h8.16v18.38c0,2.71-.57,5.08-1.72,7.12-1.14,2.04-2.78,3.61-4.91,4.71-2.13,1.1-4.62,1.65-7.47,1.65s-5.36-.55-7.52-1.65c-2.16-1.1-3.82-2.67-5-4.71-1.18-2.04-1.76-4.41-1.76-7.12v-18.38h8.17v18.38c0,1.96.58,3.54,1.74,4.73Z" style="fill:#fff;"/><path d="M232.12,31.32h8.16v31.27h-8.16v-31.27Z" style="fill:#fff;"/><path d="M262.57,38.32c-1.89-.62-3.47-.94-4.75-.94-1.01,0-1.81.19-2.39.56-.58.37-.87.91-.87,1.63s.25,1.26.76,1.72c.51.46,1.13.83,1.87,1.12.74.28,1.84.65,3.3,1.09,2.17.62,3.96,1.25,5.38,1.87,1.41.62,2.62,1.58,3.64,2.88s1.52,2.98,1.52,5.06-.55,3.86-1.65,5.33c-1.1,1.47-2.61,2.58-4.53,3.32-1.92.74-4.05,1.12-6.4,1.12-2.59,0-5.17-.45-7.74-1.36-2.57-.91-4.8-2.15-6.67-3.73l3.17-6.38c1.58,1.4,3.44,2.54,5.6,3.44s4.07,1.34,5.73,1.34c1.22,0,2.18-.22,2.88-.67.7-.45,1.05-1.1,1.05-1.96,0-.71-.26-1.31-.78-1.78-.52-.48-1.18-.85-1.96-1.14-.79-.28-1.9-.62-3.32-1-2.14-.59-3.91-1.2-5.31-1.81-1.4-.61-2.59-1.53-3.59-2.77-1-1.23-1.5-2.88-1.5-4.93,0-1.93.51-3.63,1.54-5.09,1.03-1.46,2.48-2.58,4.37-3.37s4.08-1.18,6.58-1.18c2.26,0,4.49.32,6.69.96,2.2.64,4.13,1.5,5.8,2.57l-3.08,6.51c-1.67-.98-3.44-1.78-5.33-2.41Z" style="fill:#fff;"/><path d="M275.17,31.32h24.67v6.51h-16.51v5.84h14.9v6.47l-14.9.04v5.89h16.95v6.51h-25.12v-31.27Z" style="fill:#fff;"/><path d="M324.07,62.59l-4.55-8.66h-6.07v8.66h-8.16v-31.27h14.05c4.13,0,7.34.96,9.62,2.88,2.28,1.92,3.41,4.62,3.41,8.1,0,2.35-.48,4.38-1.43,6.09-.95,1.71-2.34,3.04-4.15,3.99l6.51,10.22h-9.24ZM313.45,47.43h5.93c1.67,0,2.95-.42,3.86-1.25s1.36-2.04,1.36-3.61-.45-2.68-1.36-3.5c-.91-.82-2.19-1.23-3.86-1.23h-5.93v9.59Z" style="fill:#fff;"/><path d="M370.47,62.59l-2.14-5.53h-13.52l-2.19,5.53h-8.39l13.43-31.27h8.39l13.12,31.27h-8.7ZM357.26,50.82h8.66l-4.28-11.15-4.37,11.15Z" style="fill:#fff;"/><path d="M376.4,31.32h8.79l7.81,22.62,7.85-22.62h8.39l-12.22,31.27h-8.48l-12.13-31.27Z" style="fill:#fff;"/><path d="M412.18,31.32h8.16v31.27h-8.16v-31.27Z" style="fill:#fff;"/><path d="M449.39,62.59l-2.14-5.53h-13.52l-2.19,5.53h-8.39l13.43-31.27h8.39l13.12,31.27h-8.7ZM436.19,50.82h8.66l-4.28-11.15-4.37,11.15Z" style="fill:#fff;"/><path d="M454.84,31.32h26.81v6.74h-9.37v24.54h-8.17v-24.54h-9.28v-6.74Z" style="fill:#fff;"/><path d="M484.95,31.32h8.16v31.27h-8.16v-31.27Z" style="fill:#fff;"/><path d="M522.72,32.93c2.57,1.4,4.59,3.32,6.07,5.76,1.47,2.44,2.21,5.17,2.21,8.21s-.74,5.83-2.21,8.3c-1.47,2.47-3.5,4.42-6.07,5.84-2.57,1.43-5.45,2.14-8.63,2.14s-6.06-.71-8.63-2.12c-2.57-1.41-4.59-3.36-6.07-5.84-1.47-2.48-2.21-5.26-2.21-8.32s.74-5.77,2.21-8.21c1.47-2.44,3.5-4.36,6.07-5.76,2.57-1.4,5.45-2.1,8.63-2.1s6.06.7,8.63,2.1ZM509.87,38.95c-1.32.8-2.37,1.91-3.15,3.32-.77,1.41-1.16,2.97-1.16,4.66s.39,3.29,1.18,4.71c.79,1.41,1.84,2.53,3.15,3.35s2.74,1.23,4.28,1.23,2.97-.41,4.26-1.23,2.31-1.93,3.06-3.35c.74-1.41,1.12-2.98,1.12-4.71s-.37-3.25-1.12-4.66c-.74-1.41-1.76-2.52-3.06-3.32-1.29-.8-2.71-1.21-4.26-1.21s-2.98.4-4.31,1.21Z" style="fill:#fff;"/><path d="M556.42,31.32h7.58v31.27h-7.14l-14.19-18.69v18.69h-7.63v-31.27h7.18l14.23,18.83-.04-18.83Z" style="fill:#fff;"/><path d="M94.28,53.81c-.2.87-.41,1.74-.62,2.6-.08.31-.15.62-.23.92-.29,1.12-.59,2.23-.9,3.32-.07.24-.14.47-.21.7-.26.89-.52,1.77-.79,2.64-.1.33-.2.66-.31.99-.28.89-.57,1.77-.86,2.64-.06.18-.12.37-.18.55-.35,1.04-.71,2.06-1.07,3.07-.09.26-.19.52-.29.78-.29.78-.57,1.55-.86,2.31-.1.26-.2.52-.3.78-.75,1.94-1.5,3.79-2.24,5.54-.09.22-.18.43-.28.65-.31.72-.62,1.43-.92,2.12-.04.1-.09.2-.13.3l4.35,8.53.17.34c3.27-7.6,14.65-37.16,8.29-67.57,0,.11,0,.21.01.32.08,1.19.14,2.39.17,3.59,0,.21,0,.42,0,.62.01,1.01,0,2.03-.01,3.04,0,.36-.02.73-.03,1.09-.04.98-.09,1.96-.15,2.95-.02.24-.03.48-.05.72-.09,1.2-.21,2.39-.34,3.58-.04.32-.08.64-.12.96-.11.91-.24,1.83-.37,2.74-.05.36-.11.71-.16,1.07-.18,1.15-.38,2.29-.59,3.42-.01.06-.02.13-.04.19-.22,1.15-.46,2.29-.71,3.42-.08.35-.16.71-.24,1.06Z" style="fill:#fff;"/><path d="M83.94,14.07s0-.07,0-.1c-.34-4.35-.93-7.52-1.27-9.1C50.82,19.13,23.15,36.28,11.99,43.49c-1.75,1.13-3.1,2.02-3.99,2.61,2.24,1.41,4.68,2.89,7.18,4.35.71.41,1.3.74,1.68.96,2.71-1.79,15.92-10.44,35.53-21.6,16.65-9.47,28.64-14.54,31.56-15.74Z" style="fill:#fff;"/><path d="M82.38,84.75c-1.21-.02-2.41-.05-3.6-.09-.32-.01-.63-.03-.95-.04-1.06-.04-2.11-.1-3.15-.16-.32-.02-.65-.04-.97-.06-1.27-.09-2.54-.18-3.78-.3-.21-.02-.42-.04-.64-.06-1.07-.1-2.12-.21-3.17-.34-.32-.04-.65-.08-.97-.11-1.22-.15-2.44-.31-3.63-.49-.03,0-.06,0-.09-.01-1.17-.17-2.32-.36-3.46-.56-.3-.05-.61-.11-.91-.16-1.03-.18-2.04-.38-3.04-.58-.14-.03-.28-.05-.42-.08-1.13-.23-2.23-.48-3.33-.73-.27-.06-.53-.13-.79-.19-.91-.22-1.81-.44-2.7-.67-.21-.05-.42-.11-.63-.16-1.05-.28-2.09-.57-3.11-.87-.21-.06-.42-.13-.63-.19-.85-.25-1.69-.52-2.51-.78-.23-.08-.47-.15-.7-.23-.98-.33-1.96-.66-2.91-1-.13-.05-.25-.09-.37-.14-.84-.31-1.67-.62-2.48-.93-.23-.09-.46-.18-.69-.27-1.83-.73-3.6-1.49-5.3-2.27-.21-.1-.42-.19-.63-.29-.74-.35-1.47-.7-2.19-1.06-.1-.05-.21-.1-.32-.16-.81-.41-1.59-.82-2.37-1.24-.18-.1-.35-.19-.53-.29-.64-.35-1.27-.71-1.89-1.06-.15-.09-.3-.17-.44-.26-.73-.43-1.44-.86-2.14-1.3-.13-.08-.26-.17-.39-.25-.58-.37-1.15-.74-1.71-1.11-.16-.1-.31-.21-.46-.31-.65-.45-1.29-.89-1.91-1.35-.07-.05-.13-.1-.19-.14-.56-.41-1.1-.82-1.62-1.23-.14-.11-.29-.23-.43-.34-.14-.11-.28-.22-.42-.33,24.61,27.82,68.2,30.98,77.21,31.34l-.78-1.53-3.87-7.58Z" style="fill:#fff;"/><path d="M90.49,6.64c-.1-.23-.2-.46-.3-.69-.11-.25-.22-.49-.33-.73-.1-.21-.2-.42-.3-.63-.12-.24-.23-.48-.35-.71-.1-.2-.2-.39-.3-.58-.08-.14-.15-.28-.23-.42-.54-.96-1.11-1.92-1.7-2.87C46.1,13.45,12.64,36.81,0,47.82c.43.89.87,1.78,1.34,2.64.02.03.04.06.06.1.1.17.22.34.33.51.18.29.37.57.57.86.14.2.29.4.44.6.19.26.38.52.58.78.17.22.35.43.53.65.2.25.4.49.61.74.2.23.4.46.61.68.21.24.43.48.66.72.22.24.45.47.68.71.23.23.46.47.69.7.25.24.51.49.77.73.24.22.48.45.73.67.28.25.56.5.85.76.25.21.5.43.75.64.31.26.62.52.94.78.25.2.51.41.77.61.34.27.69.53,1.04.8.25.19.52.38.78.57.38.28.76.55,1.15.82.25.17.51.35.76.52.42.29.84.57,1.28.86.23.15.48.3.72.46.47.3.95.6,1.44.9.2.12.41.24.62.36.54.32,1.09.65,1.65.96.12.07.24.13.36.2,3.66,2.04,7.73,3.98,12.21,5.72.02,0,.03.01.05.02.82.32,1.66.63,2.51.94.13.05.25.09.38.14.8.29,1.61.56,2.43.84.19.06.38.13.57.19.79.26,1.6.51,2.42.76.23.07.45.14.68.21.8.24,1.62.47,2.44.7.25.07.5.14.75.21.82.22,1.65.44,2.49.64.27.07.53.13.8.2.84.2,1.7.4,2.56.59.27.06.55.12.82.18.87.19,1.75.37,2.64.54.27.05.55.1.83.16.91.17,1.82.33,2.75.49.26.04.53.09.79.13.95.15,1.91.3,2.89.44.24.03.48.06.72.1,1.01.14,2.03.27,3.06.39.18.02.37.04.56.06,1.1.12,2.21.24,3.33.34.07,0,.13.01.2.02,3.79.33,7.71.54,11.77.6,1.16-2.62,2.23-5.17,3.21-7.66.01-.03.02-.05.03-.08.43-1.09.83-2.15,1.23-3.22.08-.21.16-.41.23-.62.36-.99.71-1.96,1.04-2.93.09-.26.18-.53.27-.79.32-.93.62-1.85.91-2.77.09-.28.18-.56.27-.83.28-.9.55-1.78.81-2.66.08-.27.16-.55.24-.82.25-.88.49-1.74.72-2.6.07-.26.13-.51.2-.76.22-.86.44-1.72.64-2.57.05-.22.1-.44.15-.66.2-.87.4-1.73.57-2.58.03-.16.06-.31.09-.46.19-.9.36-1.8.52-2.68,0-.02,0-.04.01-.07.88-4.88,1.36-9.38,1.53-13.54,0-.09,0-.18.01-.27.03-.7.04-1.38.05-2.06,0-.18,0-.36,0-.53,0-.63,0-1.25-.01-1.86,0-.21,0-.43-.01-.64-.02-.58-.04-1.15-.07-1.71-.01-.23-.02-.46-.04-.69-.03-.54-.07-1.08-.11-1.6-.02-.24-.04-.47-.06-.7-.05-.51-.1-1.01-.15-1.51-.03-.24-.06-.47-.08-.7-.06-.48-.12-.96-.19-1.43-.03-.23-.07-.45-.1-.68-.07-.47-.15-.93-.23-1.38-.04-.21-.08-.42-.12-.62-.09-.45-.17-.91-.27-1.35-.04-.17-.08-.34-.12-.51-.33-1.5-.71-2.92-1.12-4.26-.06-.19-.11-.38-.17-.56-.1-.31-.2-.62-.31-.92-.08-.25-.17-.5-.25-.74-.1-.28-.2-.54-.3-.81-.1-.26-.19-.52-.29-.77-.1-.25-.2-.5-.3-.74-.1-.25-.21-.51-.31-.75ZM78.67,75.22l-.25.99-.98-.27c-16.63-4.59-27.83-8.06-42.81-13.26-4.09-1.42-12.25-5.72-19.98-10.22-1.98-1.14-5.4-3.14-9.03-5.49l-.02-.02-1.25-.8,1.25-.85c.35-.24,35.41-24.11,77.36-42.76l1.03-.46h0s.03-.01.03-.01l.31,1.12c.34,1.12,6.75,23.39-5.66,72.04Z" style="fill:#fff;"/></g></svg>